<svg xmlns="http://www.w3.org/2000/svg" xmlns:xlink="http://www.w3.org/1999/xlink" width="0" height="0" style="position:absolute">
	
		<symbol id="icon-arrow" viewBox="0 0 10 12">
			<path d="M10 6L0 12V0l10 6z" fill="#EF3E2C"></path>
		</symbol>
	
		<symbol id="icon-arrow-double" viewBox="0 0 20 12">
			<path d="M10 6L0 12V0l10 6zM20 6l-10 6V0l10 6z" fill="#EF3E2C"></path>
		</symbol>
	
		<symbol id="icon-catalog" viewBox="0 0 18 18">
			<path d="M10.8 1.8a1.8 1.8 0 1 1-3.6 0 1.8 1.8 0 0 1 3.6 0zM10.8 9a1.8 1.8 0 1 1-3.6 0 1.8 1.8 0 0 1 3.6 0zM9 18a1.8 1.8 0 1 0 0-3.6A1.8 1.8 0 0 0 9 18zM3.6 9A1.8 1.8 0 1 1 0 9a1.8 1.8 0 0 1 3.6 0zM1.8 3.6a1.8 1.8 0 1 0 0-3.6 1.8 1.8 0 0 0 0 3.6zM3.6 16.2a1.8 1.8 0 1 1-3.6 0 1.8 1.8 0 0 1 3.6 0zM16.2 10.8a1.8 1.8 0 1 0 0-3.6 1.8 1.8 0 0 0 0 3.6zM18 1.8a1.8 1.8 0 1 1-3.6 0 1.8 1.8 0 0 1 3.6 0zM16.2 18a1.8 1.8 0 1 0 0-3.6 1.8 1.8 0 0 0 0 3.6z" fill="#EF3E2C"></path>
		</symbol>
	
		<symbol id="icon-close-sub" viewBox="0 0 27 26">
			<path d="M25.602 25l-24-24M1.602 25l24-24" stroke="#EF3E2C" stroke-width="2" stroke-linecap="round" stroke-linejoin="round"></path>
		</symbol>
	
		<symbol id="icon-email" viewBox="0 0 15 13">
			<path fill-rule="evenodd" clip-rule="evenodd" d="M.334 2.5a2 2 0 0 1 2-2h10.667a2 2 0 0 1 2 2v8a2 2 0 0 1-2 2H2.334a2 2 0 0 1-2-2v-8zm2-.667a.667.667 0 0 0-.667.667v.956L7.324 6.85a.667.667 0 0 0 .686 0l5.657-3.394V2.5a.667.667 0 0 0-.666-.667H2.334zm11.333 3.178l-4.97 2.982a2 2 0 0 1-2.059 0l-4.97-2.982V10.5c0 .368.298.667.666.667h10.667a.667.667 0 0 0 .666-.667V5.01z" fill="#EF3E2C"></path>
		</symbol>
	
		<symbol id="icon-mess-tg" viewBox="0 0 28 28">
			<rect y="-.004" width="28" height="28" rx="3"></rect><path d="M12.063 16.382l-.298 4.188c.426 0 .61-.183.832-.402l1.997-1.91 4.139 3.032c.759.423 1.294.2 1.498-.698l2.717-12.73c.242-1.123-.405-1.561-1.145-1.286L5.836 12.689c-1.09.423-1.074 1.03-.186 1.306l4.083 1.27 9.482-5.934c.447-.295.852-.132.518.164l-7.67 6.887z" fill="#fff"></path>
		</symbol>
	
		<symbol id="icon-mess-wt" viewBox="0 0 28 28">
			<rect y="-.004" width="28" height="28" rx="3"></rect><path d="M20.39 7.583a9.106 9.106 0 0 0-6.356-2.587c-6.878 0-11.196 7.451-7.762 13.379L5 22.996l4.751-1.239c2.07 1.118 3.766 1.02 4.287 1.085 7.975 0 11.945-9.648 6.34-15.23l.012-.03z" fill="#ECEFF1"></path><path d="M14.05 21.31l-.004-.001h-.012c-2.387 0-3.911-1.13-4.061-1.196l-2.813.732.754-2.734-.18-.281a7.401 7.401 0 0 1-1.136-3.945c0-6.595 8.058-9.893 12.722-5.232 4.652 4.613 1.386 12.657-5.27 12.657z" fill="#EF3E2C"></path><path d="M18.128 15.727l-.006.056c-.226-.112-1.326-.65-1.53-.724-.46-.17-.33-.027-1.213.984-.131.146-.262.157-.485.056-.225-.113-.947-.349-1.802-1.114-.666-.596-1.113-1.327-1.245-1.553-.22-.379.24-.433.659-1.225.075-.158.036-.281-.02-.393-.055-.113-.503-1.215-.69-1.655-.18-.438-.366-.382-.505-.382-.432-.038-.747-.032-1.026.258-1.21 1.33-.905 2.703.13 4.162 2.036 2.665 3.12 3.155 5.104 3.836.535.17 1.024.146 1.41.09.43-.068 1.325-.54 1.512-1.069.191-.528.191-.967.135-1.068-.056-.102-.203-.158-.428-.26z" fill="#FAFAFA"></path>
		</symbol>
	
		<symbol id="icon-readmore" viewBox="0 0 16 14">
			<path d="M15.382 7.001l-5.596 5.561-.174-.173 4.28-4.347.839-.85H.669a.193.193 0 0 1-.167-.167.2.2 0 0 1 .169-.16H14.86l-.853-.854-4.4-4.4.184-.195 5.591 5.585z"></path>
		</symbol>
	
		<symbol id="icon-search" viewBox="0 0 18 18">
			<path fill-rule="evenodd" clip-rule="evenodd" d="M13.996 15.208a8.571 8.571 0 1 1 1.212-1.212l2.54 2.54a.857.857 0 1 1-1.211 1.213l-2.541-2.54zm1.433-6.637a6.857 6.857 0 1 1-13.715 0 6.857 6.857 0 0 1 13.715 0z" fill="#EF3E2C"></path>
		</symbol>
	
</svg>
