<svg width="16" height="16" viewBox="0 0 16 16" fill="none" xmlns="http://www.w3.org/2000/svg">
<path fill-rule="evenodd" clip-rule="evenodd" d="M1.25053 1.01413C2.12886 -0.215529 3.8944 -0.325984 4.87963 0.872237C4.96271 0.973277 5.04646 1.07522 5.13021 1.17716C5.86214 2.06814 6.59372 2.95868 6.87496 3.23992C7.14705 3.51201 7.19904 3.93436 7.00107 4.26432L5.46049 6.83195C5.55923 6.99353 5.69302 7.18633 5.86418 7.40625C6.16939 7.79841 6.55938 8.23378 6.9943 8.6687C7.72672 9.40111 8.54669 10.0927 9.25251 10.56L11.7802 9.04343C12.088 8.85873 12.4792 8.89046 12.7533 9.12235L15.1923 11.1862C16.3276 12.1468 16.2549 13.9193 15.0447 14.7837C13.1786 16.1167 10.6705 16.4336 8.61557 15.1795C7.19896 14.3149 5.46309 13.0943 3.91014 11.5414C2.50556 10.1368 1.47219 8.68206 0.742809 7.45926C-0.508056 5.36218 -0.0712924 2.86468 1.25053 1.01413ZM3.58417 1.93742C3.32497 1.62218 2.87582 1.6242 2.61528 1.98896C1.57851 3.44043 1.35533 5.2122 2.18319 6.6001C2.85683 7.72947 3.8085 9.0679 5.09607 10.3555C6.52529 11.7847 8.14345 12.9265 9.4893 13.7479C10.8761 14.5943 12.655 14.4296 14.0699 13.4189C14.3903 13.1901 14.4096 12.7208 14.109 12.4665L12.1283 10.7905L9.67825 12.2605C9.41887 12.4161 9.09577 12.42 8.83273 12.2706C7.86978 11.7238 6.74426 10.7905 5.80838 9.85462C5.33587 9.38211 4.89737 8.89469 4.54064 8.43633C4.19383 7.99073 3.88691 7.52549 3.72188 7.10246C3.62755 6.86066 3.6505 6.58881 3.78403 6.36625L5.24327 3.93419C4.85184 3.48133 4.3318 2.8479 3.85109 2.26238C3.76034 2.15184 3.67099 2.04301 3.58417 1.93742Z" fill="#EF3E2C"/>
</svg>
