<svg width="16" height="12" viewBox="0 0 16 12" fill="none" xmlns="http://www.w3.org/2000/svg">
<path d="M0 1.20039C0 0.758563 0.358172 0.400391 0.8 0.400391H15.2C15.6418 0.400391 16 0.758564 16 1.20039C16 1.64222 15.6418 2.00039 15.2 2.00039L0.8 2.00039C0.358172 2.00039 0 1.64222 0 1.20039Z" fill="white"/>
<path d="M0 6.00039C0 5.55856 0.358172 5.20039 0.8 5.20039L15.2 5.20039C15.6418 5.20039 16 5.55856 16 6.00039C16 6.44222 15.6418 6.80039 15.2 6.80039L0.8 6.80039C0.358172 6.80039 0 6.44222 0 6.00039Z" fill="white"/>
<path d="M0.8 10.0004C0.358172 10.0004 0 10.3586 0 10.8004C0 11.2422 0.358172 11.6004 0.8 11.6004L15.2 11.6004C15.6418 11.6004 16 11.2422 16 10.8004C16 10.3586 15.6418 10.0004 15.2 10.0004L0.8 10.0004Z" fill="white"/>
</svg>
