<svg width="16" height="16" viewBox="0 0 16 16" fill="none" xmlns="http://www.w3.org/2000/svg">
<path fill-rule="evenodd" clip-rule="evenodd" d="M12.4409 13.5184C11.1275 14.5932 9.44857 15.238 7.61904 15.238C3.41116 15.238 0 11.8269 0 7.61902C0 3.41115 3.41116 0 7.61904 0C11.8269 0 15.2381 3.41115 15.2381 7.61902C15.2381 9.44857 14.5932 11.1275 13.5184 12.4409L15.7768 14.6994C16.0744 14.9969 16.0744 15.4793 15.7768 15.7768C15.4793 16.0744 14.9969 16.0744 14.6993 15.7768L12.4409 13.5184ZM13.7143 7.61902C13.7143 10.9853 10.9853 13.7142 7.61904 13.7142C4.25274 13.7142 1.52381 10.9853 1.52381 7.61902C1.52381 4.25273 4.25274 1.5238 7.61904 1.5238C10.9853 1.5238 13.7143 4.25273 13.7143 7.61902Z" fill="#EF3E2C"/>
</svg>
