<svg width="186" height="46" viewBox="0 0 186 46" fill="none" xmlns="http://www.w3.org/2000/svg">
<path d="M13.8427 13.826C13.412 16.3185 13.0121 18.6109 12.5968 20.9033C11.3869 27.7959 10.1667 34.6885 8.93622 41.5811C8.78242 42.4426 8.65937 43.3196 8.4748 44.1812C8.4748 44.3812 8.18257 44.6735 8.01338 44.6735C5.39865 44.6735 2.76854 44.6735 0 44.6735C2.53783 30.2575 5.07565 15.9031 7.58272 1.50245H8.32099C12.8583 1.50245 17.411 1.50245 21.9483 1.50245C23.2791 1.43319 24.6058 1.70152 25.8051 2.28252C27.0044 2.86352 28.0374 3.73833 28.8082 4.82567C33.7915 11.5849 38.7698 18.3493 43.7429 25.1188L48.6647 31.8268L49.08 32.273C49.2646 31.3037 49.4338 30.4729 49.5876 29.6267C51.0129 21.5033 52.4381 13.3747 53.8634 5.24107C54.048 4.1641 54.2326 3.07175 54.4633 1.97939C54.4633 1.77939 54.7863 1.47168 54.9708 1.47168C57.5702 1.47168 60.1695 1.47168 62.7689 1.47168C62.7689 1.47168 62.8612 1.47168 62.9381 1.56399C62.5689 3.7487 62.1998 5.94879 61.8153 8.14889L59.5082 21.1341C58.1854 28.6421 56.8165 36.1655 55.5399 43.6889C55.3861 44.5658 55.0785 44.7197 54.2941 44.7197C49.8952 44.7197 45.4963 44.6274 41.1128 44.7197C39.7204 44.7823 38.3353 44.4855 37.0907 43.8577C35.8462 43.2298 34.7842 42.2922 34.0069 41.1349C31.1563 37.2578 28.3057 33.3602 25.4552 29.4421L14.4118 14.4415C14.2733 14.2568 14.1195 14.103 13.8427 13.7799" fill="#DD0B16"/>
<path d="M117.649 44.6886H116.788C112.327 44.6886 107.852 44.6886 103.391 44.6886C102.06 44.7472 100.735 44.4676 99.5409 43.8757C98.3468 43.2838 97.3219 42.399 96.562 41.3039L90.2098 32.7035L76.5978 14.2412C76.5223 14.1446 76.4554 14.0417 76.3979 13.9335H76.2133C75.9672 15.2874 75.7211 16.6413 75.4904 18.0106C74.3112 24.4211 73.1577 30.7957 72.0297 37.1344C71.6144 39.4422 71.2145 41.75 70.7839 44.0886C70.7839 44.2886 70.507 44.6117 70.3532 44.6117C67.7231 44.6117 65.1084 44.6117 62.3398 44.6117C62.4783 43.7347 62.6013 42.9193 62.7397 42.1193C63.9087 35.6164 65.0674 29.088 66.2158 22.5338C67.3437 16.1438 68.4716 9.75893 69.5996 3.37917V3.28686C69.9226 1.45601 69.9226 1.44063 71.7529 1.44063C75.8749 1.44063 80.0123 1.44063 84.1344 1.44063C85.5146 1.37186 86.8892 1.65992 88.1257 2.27702C89.3623 2.89413 90.419 3.81947 91.1942 4.96386L99.6074 16.4105L110.758 31.5342C110.928 31.765 111.097 31.9958 111.389 32.365C113.25 21.9646 115.05 11.7488 116.788 1.50217H125.201C122.658 15.8618 120.095 30.2572 117.511 44.6886" fill="#DD0B16"/>
<path d="M178.924 39.6886C178.771 41.2271 178.601 42.5657 178.494 43.9503C178.494 44.5196 178.109 44.6119 177.663 44.6581C175.571 44.8888 173.464 45.1812 171.373 45.3658C165.601 45.9065 159.802 46.1018 154.008 45.9504C149.66 45.9403 145.332 45.361 141.134 44.2273C137.467 43.3286 134.132 41.4018 131.521 38.6732C129.378 36.236 128.045 33.1931 127.707 29.9651C127.122 24.3149 128.428 18.6305 131.421 13.8026C134.413 8.97477 138.922 5.27638 144.241 3.28708C148.966 1.51385 153.936 0.476103 158.976 0.210025C164.664 -0.118201 170.368 -0.0616598 176.048 0.379263C179.324 0.625427 182.585 1.02544 186 1.37931C185.569 3.13323 185.184 4.73329 184.815 6.30259C182.616 5.94873 180.524 5.53333 178.417 5.28716C171.496 4.53329 164.651 4.70252 158.191 7.68727C155.177 9.02463 152.546 11.0949 150.537 13.7095C148.527 16.3241 147.204 19.4 146.686 22.6571C146.044 25.4731 146.129 28.4064 146.932 31.1806C147.529 33.0643 148.564 34.7798 149.952 36.1865C151.339 37.5932 153.04 38.651 154.915 39.2732C158.56 40.5674 162.416 41.1625 166.281 41.0271C170.357 40.9839 174.417 40.5303 178.402 39.6732C178.576 39.6607 178.75 39.6607 178.924 39.6732" fill="#DD0B16"/>
</svg>
